<?xml version="1.0" encoding="UTF-8"?>
<svg width="500" height="320" version="1.1" xmlns="http://www.w3.org/2000/svg">
 <path d="m363.59 0c13.673 28.581 37.752 88.792 37.752 158.92 0 70.702-24.472 132.26-38.082 161.08h111.61c13.877 0 25.126-11.28 25.126-25.195v-269.61c0-13.916-11.249-25.196-25.126-25.196z" fill="#0019a8"/>
 <path d="m25.128 0c-13.877 0-25.128 11.28-25.128 25.196v269.61c0 13.915 11.25 25.195 25.128 25.195h296.6c16.037-29.17 45.191-91.662 45.191-161.03 0-67.767-27.821-128.97-44.061-158.97z" fill="#0ea9ec"/>
 <path d="m322.28 0c27.202 47.014 42.809 101.61 42.809 159.87 0 58.373-15.671 113.05-42.963 160.13h41.27c24.268-48.129 38.001-102.51 38.001-160.13 0-57.518-13.682-111.81-37.871-159.87z" fill="#fff"/>
 <path d="m65.695 55.37c-6.6502 0-11.959 5.3083-11.959 11.964 0 6.6524 5.309 11.959 11.959 11.959 6.6579 0 11.967-5.3068 11.967-11.959 0-6.6556-5.3093-11.964-11.967-11.964zm0 2.2321c5.4144 0 9.7319 4.3175 9.7319 9.7319 0 5.4111-4.3175 9.7255-9.7319 9.7255-5.4112 0-9.7255-4.3144-9.7255-9.7255 0-5.4144 4.3144-9.7319 9.7255-9.7319z" fill="#fff"/>
 <path d="m292.45 49.05h1.0165c0.38284 0 0.71228-0.10361 0.71228-0.60644 0-0.48647-0.32944-0.59336-0.71228-0.59336h-1.0165zm-1.1824-1.5554c0-0.39594 0.28689-0.59226 0.58899-0.59226h1.6765c1.1867 0 1.9098 0.35666 1.9098 1.5936 0 0.97729-0.60641 1.4638-1.2226 1.5041l0.86599 1.1594c0.14618 0.19852 0.1713 0.35668 0.1713 0.52683 0 0.22469-0.23348 0.46247-0.5661 0.46247-0.27707 0-0.47119-0.11889-0.68389-0.42102l-1.2162-1.7277h-0.34137v1.5412c0 0.41012-0.26398 0.60754-0.59341 0.60754-0.31413 0-0.58899-0.19742-0.58899-0.60754zm1.959 5.8518c1.912 0 3.4696-1.5412 3.4696-3.7794 0-2.2436-1.5576-3.7848-3.4696-3.7848-1.9361 0-3.4653 1.5412-3.4653 3.7848 0 2.2382 1.5292 3.7794 3.4653 3.7794m0-8.7509c2.5697 0 4.9715 1.8182 4.9715 4.9716 0 3.1479-2.4018 4.9661-4.9715 4.9661-2.5654 0-4.9705-1.8182-4.9705-4.9661 0-3.1533 2.4051-4.9716 4.9705-4.9716m-38.475 6.8728c0-3.9692 2.753-6.6186 6.4833-6.6186 3.3322 0 5.35 1.8019 5.9609 4.784 0.0894 0.41992 0.23445 0.52245 0.45368 0.52245 0.21597 0 0.34579-0.12107 0.49304-0.36649 2.3145-3.9441 5.4842-5.0359 8.5448-5.0359 3.7947 0 6.5423 1.527 6.5423 5.0752 0 5.8092-6.9317 5.0086-11.684 8.631-2.8632 2.1826-3.9964 5.4482-3.9964 11.213l-9e-3 13.54c0 3.9746-2.6658 6.6207-6.3906 6.6207-3.726 0-6.3982-2.6461-6.3982-6.6207zm-134.03-2.5788c1.491-3.5907 4.9333-4.9443 8.2885-3.5176 3.3594 1.4289 4.784 4.8505 3.2285 8.403l-12.158 27.803c-3.8677 8.8437-8.4576 18.246-15.312 22.908-3.2133 2.1804-6.8181 3.5165-9.6813 2.3069-2.8098-1.1954-3.8383-4.4022-2.5742-6.8847 0.46359-0.91293 1.1954-1.6023 2.2055-2.1913 4.9879-2.9221 7.8653-6.7604 10.379-11.767l-14.412-32.2c-1.6176-3.6212-0.01-7.1323 3.451-8.5295 3.4587-1.3983 6.8912 0.0731 8.4052 3.7423l9.0596 21.876zm-55.026 30.402c-6.6502 0-11.96-5.3064-11.96-11.96 0-6.6556 5.3097-11.964 11.96-11.964 6.6579 0 11.966 5.3086 11.966 11.964 0 6.6535-5.3086 11.96-11.966 11.96m0-34.962c-13.496 0-23.127 10.297-23.127 23.002 0 12.699 9.6312 22.996 23.127 22.996 13.5 0 23.131-10.297 23.131-22.996 0-12.706-9.6312-23.002-23.131-23.002m113.87 11.418h-2.8382c-3.4663 0-5.5943-1.9851-5.5943-5.2126 0-2.9788 2.393-5.2104 5.5943-5.2104h2.8382v-7.1192c0-3.9714 2.6636-6.6164 6.3982-6.6164 3.7292 0 6.3949 2.645 6.3949 6.6164v7.1192h3.6409c3.2864 0 6.1288 1.4048 6.1288 5.2104 0 3.7259-2.8425 5.2126-6.1288 5.2126h-3.6409v14.513c0 7.2643 1.5248 9.3159 3.5133 11.438 1.2816 1.3765 1.8826 2.392 1.8826 4.1339 0 2.9526-2.6341 4.3924-5.9248 4.3924-3.5438 0-6.9763-2.1978-9.088-5.4591-2.3614-3.6801-3.1762-8.6713-3.1762-16.095zm37.304 6.7452c1.3907-4.4109 4.7588-7.6198 10.111-7.6198 5.6107 0 8.4488 3.702 8.9178 7.6198zm25.508 8.8077c3.9004 0 5.783-1.7375 5.8583-5.2944 0.2225-10.144-4.532-21.676-21.116-21.676-13.498 0-23.523 9.5156-23.523 23.08 0 13.155 8.9843 22.92 23.372 22.92 9.7741 0 18.332-3.0322 18.332-8.1619 0-3.2722-1.7681-4.8232-4.8843-4.8232-3.3693 0-5.1079 2.5589-11.683 2.5589-5.95 0-11.19-2.7279-12.078-8.6026zm-73.892-20.13c0-5.8725-8.9036-6.8411-15.207-6.8411-10.127 0-17.323 5.6271-17.323 13.899 0 6.6458 4.6879 10.107 9.8002 12.17 5.9565 2.4094 12.406 3.3246 12.406 6.3295 0 2.2338-2.4846 3.1762-5.6685 3.1762-6.3918 0-7.9536-2.416-12.218-2.416-3.5558 0-5.4232 2.501-5.4232 5.2061 0 5.3817 9.1294 7.6351 16.457 7.6351 12.803 0 19.11-6.0416 19.11-13.983 0-7.7715-5.9707-11.125-11.765-13.072-5.3194-1.7932-10.445-2.6734-10.445-5.4286 0-2.3167 2.2622-3.0911 4.5724-3.0911 5.2748 0 6.9381 1.7103 10.46 1.7103 3.0247 0 5.2443-2.3331 5.2443-5.2944" fill="#1c3f94"/>
 <path d="m184.7 298.4c-0.0857-0.0299-0.20585-0.0432-0.3598-0.0432-0.39044 0-0.73687 0.17203-1.0424 0.51688v2.9105h-0.62451v-3.9152h0.62451v0.39434c0.35821-0.34171 0.73056-0.51453 1.117-0.51453l0.13981 0.0141c0.0825 0 0.13038 2e-3 0.14534 9e-3zm-3.6599 1.0456c-0.0266-0.34171-0.14375-0.62294-0.34961-0.83897-0.20656-0.21681-0.47993-0.32522-0.82011-0.32522-0.32674 0-0.58992 0.11234-0.78629 0.33622-0.19643 0.22467-0.31503 0.50118-0.35509 0.82797zm0.59229 0.46661h-2.9442c9e-3 0.40298 0.14847 0.74392 0.42025 1.0181 0.27101 0.27573 0.60878 0.41399 1.0126 0.41399 0.19949 0 0.39121-0.0236 0.57891-0.0707 0.18541-0.0464 0.46744-0.18854 0.8445-0.42577v0.63787c-0.47999 0.27729-0.97252 0.41633-1.4761 0.41633-0.57737 0-1.0573-0.19638-1.4414-0.59072-0.38413-0.39278-0.57584-0.88925-0.57584-1.4878 0-0.40063 0.0857-0.76355 0.25298-1.0841 0.16809-0.32285 0.39356-0.56716 0.67241-0.73841 0.28044-0.16653 0.5805-0.25216 0.9026-0.25216 0.49253 0 0.9073 0.17753 1.2467 0.52553 0.33776 0.35036 0.50668 0.89631 0.50668 1.6379m-4.0212-2.0432-1.5593 3.9152h-0.61037l-1.5562-3.9152h0.64648l1.2254 3.1681 1.2223-3.1681zm-6.1925 3.4753c0.41477 0 0.76043-0.14376 1.0314-0.43049 0.27337-0.28829 0.40923-0.65121 0.40923-1.0903 0-0.4454-0.13905-0.80833-0.41949-1.0919-0.27884-0.28201-0.61979-0.42419-1.0212-0.42419-0.42184 0-0.76985 0.14846-1.0416 0.44069-0.27261 0.29694-0.4093 0.65358-0.4093 1.0754 0 0.4517 0.143 0.81776 0.4258 1.0998 0.28515 0.28044 0.62609 0.42106 1.0251 0.42106m0-3.5955c0.59623 0 1.0919 0.20268 1.4831 0.60488 0.3912 0.40298 0.58604 0.89238 0.58604 1.4698 0 0.59545-0.20191 1.0903-0.60566 1.4847-0.40457 0.39592-0.8924 0.59387-1.4635 0.59387-0.59464 0-1.0911-0.20188-1.4854-0.60566-0.39591-0.40534-0.59388-0.89552-0.59388-1.4729 0-0.59701 0.20109-1.0919 0.60331-1.4847 0.40063-0.39357 0.89234-0.58995 1.476-0.58995m-5.634 1.6968c-0.0259-0.34171-0.14216-0.62294-0.34954-0.83897-0.20504-0.21681-0.47999-0.32522-0.81853-0.32522-0.32916 0-0.59152 0.11234-0.78794 0.33622-0.19478 0.22467-0.31496 0.50118-0.35503 0.82797zm0.59388 0.46661h-2.9442c9e-3 0.40298 0.14848 0.74392 0.42025 1.0181 0.26949 0.27573 0.60726 0.41399 1.0118 0.41399 0.19949 0 0.39197-0.0236 0.57814-0.0707 0.18541-0.0464 0.46738-0.18854 0.84527-0.42577v0.63787c-0.47999 0.27729-0.97176 0.41633-1.4753 0.41633-0.57737 0-1.0574-0.19638-1.4415-0.59072-0.38413-0.39278-0.57661-0.88925-0.57661-1.4878 0-0.40063 0.0841-0.76355 0.25216-1.0841 0.16968-0.32285 0.39356-0.56716 0.674-0.73841 0.27891-0.16653 0.58056-0.25216 0.9026-0.25216 0.49177 0 0.9073 0.17753 1.2451 0.52553 0.33853 0.35036 0.50821 0.89631 0.50821 1.6379m-4.9662-0.46661c-0.0253-0.34171-0.14216-0.62294-0.34954-0.83897-0.20503-0.21681-0.47999-0.32522-0.81858-0.32522-0.32835 0-0.59152 0.11234-0.78789 0.33622-0.19484 0.22467-0.31502 0.50118-0.35508 0.82797zm0.59388 0.46661h-2.9442c9e-3 0.40298 0.14847 0.74392 0.42025 1.0181 0.27025 0.27573 0.60725 0.41399 1.0126 0.41399 0.1995 0 0.39121-0.0236 0.57738-0.0707 0.18618-0.0464 0.46739-0.18854 0.84604-0.42577v0.63787c-0.47999 0.27729-0.97253 0.41633-1.4761 0.41633-0.57739 0-1.0573-0.19638-1.4414-0.59072-0.38414-0.39278-0.57585-0.88925-0.57585-1.4878 0-0.40063 0.0841-0.76355 0.25139-1.0841 0.16968-0.32285 0.39356-0.56716 0.674-0.73841 0.27885-0.16653 0.5805-0.25216 0.90259-0.25216 0.49178 0 0.90731 0.17753 1.2451 0.52553 0.33936 0.35036 0.50827 0.89631 0.50827 1.6379m-4.6583-1.2435c-0.36917-0.24588-0.77374-0.3692-1.2168-0.3692-0.26083 0-0.46738 0.0479-0.62215 0.14139-0.15319 0.0974-0.23096 0.22624-0.23096 0.38963 0 0.15868 0.0723 0.27573 0.21287 0.35114 0.14222 0.0762 0.44858 0.17989 0.91673 0.30872 0.36292 0.0958 0.63005 0.19796 0.79737 0.30479 0.16809 0.10763 0.29458 0.23645 0.37859 0.38807 0.0833 0.15318 0.12414 0.3315 0.12414 0.53731 0 0.348-0.13509 0.63315-0.4077 0.85153-0.27337 0.22074-0.63788 0.32993-1.0951 0.32993-0.47445 0-0.96623-0.15083-1.476-0.45247v-0.64493c0.55929 0.36606 1.0574 0.54909 1.4941 0.54909 0.30165 0 0.52005-0.0636 0.65674-0.18931 0.13668-0.12569 0.2042-0.2773 0.2042-0.45326 0-0.17518-0.0793-0.3103-0.24192-0.40456-0.16025-0.0935-0.43285-0.19089-0.81698-0.2938-0.36293-0.1084-0.60489-0.18932-0.72744-0.24195-0.12172-0.0526-0.23095-0.12097-0.33146-0.20817-0.099-0.0856-0.17598-0.18774-0.23095-0.30164-0.0542-0.11391-0.081-0.25216-0.081-0.41242 0-0.32836 0.14223-0.59388 0.4258-0.79498 0.28515-0.20267 0.63158-0.30479 1.0424-0.30479 0.41241 0 0.8217 0.0974 1.2254 0.29144zm-5.2419 1.0636h-4.6049v-0.48782h4.6049zm-7.4399-1.0636c-0.36922-0.24588-0.77533-0.3692-1.216-0.3692-0.26159 0-0.46821 0.0479-0.62292 0.14139-0.15401 0.0974-0.23096 0.22624-0.23096 0.38963 0 0.15868 0.0722 0.27573 0.21287 0.35114 0.14299 0.0762 0.44853 0.17989 0.91674 0.30872 0.36292 0.0958 0.62998 0.19796 0.79813 0.30479 0.16809 0.10763 0.29375 0.23645 0.37783 0.38807 0.0825 0.15318 0.12414 0.3315 0.12414 0.53731 0 0.348-0.13592 0.63315-0.40771 0.85153-0.27337 0.22074-0.63788 0.32993-1.0951 0.32993-0.47368 0-0.96545-0.15083-1.476-0.45247v-0.64493c0.56005 0.36606 1.0573 0.54909 1.4941 0.54909 0.30165 0 0.52082-0.0636 0.65668-0.18931 0.13669-0.12569 0.20426-0.2773 0.20426-0.45326 0-0.17518-0.0794-0.3103-0.24114-0.40456-0.16108-0.0935-0.43363-0.19089-0.81776-0.2938-0.36292-0.1084-0.60565-0.18932-0.72743-0.24195-0.12178-0.0526-0.23096-0.12097-0.33152-0.20817-0.099-0.0856-0.17517-0.18774-0.23096-0.30164-0.0542-0.11391-0.0809-0.25216-0.0809-0.41242 0-0.32836 0.14217-0.59388 0.42579-0.79498 0.28515-0.20267 0.63158-0.30479 1.0424-0.30479 0.41241 0 0.8217 0.0974 1.2254 0.29144zm-3.6999 3.1155h-0.61979v-2.2679c0-0.40062-0.0943-0.7007-0.28356-0.89866-0.18853-0.19639-0.43916-0.29694-0.7526-0.29694-0.36604 0-0.72584 0.18853-1.077 0.56717v2.8963h-0.62368v-3.9152h0.62368v0.37628c0.36293-0.32993 0.75885-0.49647 1.1862-0.49647 0.47681 0 0.85464 0.15318 1.1312 0.45797 0.27726 0.30402 0.41553 0.73135 0.41553 1.2836zm-6.3975-0.4399c0.41559 0 0.75883-0.14376 1.0322-0.43049 0.27261-0.28829 0.40929-0.65121 0.40929-1.0903 0-0.4454-0.14063-0.80833-0.41948-1.0919-0.28121-0.28201-0.62139-0.42419-1.022-0.42419-0.42261 0-0.76904 0.14846-1.0424 0.44069-0.27102 0.29694-0.4077 0.65358-0.4077 1.0754 0 0.4517 0.14217 0.81776 0.42579 1.0998 0.28356 0.28044 0.62528 0.42106 1.0243 0.42106m0-3.5955c0.59705 0 1.0919 0.20268 1.4823 0.60488 0.39121 0.40298 0.58763 0.89238 0.58763 1.4698 0 0.59545-0.20267 1.0903-0.60724 1.4847-0.40376 0.39592-0.89081 0.59387-1.4627 0.59387-0.59541 0-1.0903-0.20188-1.4862-0.60566-0.39439-0.40534-0.59235-0.89552-0.59235-1.4729 0-0.59701 0.20115-1.0919 0.60095-1.4847 0.40222-0.39357 0.89399-0.58995 1.4776-0.58995m-3.0896 4.0354h-0.6198v-3.9144h0.6198zm0.31661-5.0142c-0.27025 0.14925-0.4784 0.35978-0.62846 0.63237-0.13197-0.25452-0.34095-0.46662-0.62846-0.63237 0.23961-0.11705 0.45012-0.32757 0.62846-0.62922 0.15866 0.28829 0.36764 0.49725 0.62846 0.62922m-1.7628 4.9615c-0.23649 0.1139-0.49807 0.17046-0.78087 0.17046-0.42809 0-0.73528-0.12097-0.92299-0.36685-0.18699-0.24352-0.28202-0.59466-0.28202-1.0471v-2.0699h-0.72897v-0.5491h0.72897v-1.0723h0.61979v1.0723h1.3661v0.5491h-1.3661v1.8806c0.0118 0.31344 0.0236 0.50747 0.0377 0.58367 0.0136 0.0762 0.04 0.1516 0.084 0.22466 0.0418 0.0738 0.10922 0.13354 0.20037 0.1791 0.0934 0.0448 0.22541 0.0675 0.39904 0.0675 0.2042 0 0.42025-0.0605 0.64489-0.18067v0.55852zm-3.4839 0.0526h-0.6198v-3.9144h0.6198zm0.31661-5.0142c-0.27025 0.14925-0.4784 0.35977-0.62846 0.63237-0.13197-0.25452-0.34247-0.46662-0.62846-0.63237 0.23962-0.11705 0.44936-0.32757 0.62846-0.62922 0.15713 0.28829 0.36687 0.49725 0.62846 0.62922m-2.8264 4.0346v-2.0267c-0.34484-0.30401-0.70463-0.45719-1.0762-0.45719-0.40381 0-0.73374 0.15161-0.98903 0.45169-0.25451 0.29929-0.38254 0.66143-0.38254 1.0872 0 0.43598 0.12962 0.79497 0.38726 1.0738 0.25764 0.28044 0.57738 0.42027 0.95838 0.42027 0.36605 0 0.73369-0.18303 1.1021-0.5491m0.62451 0.97958h-0.62451v-0.41398c-0.34484 0.35506-0.74623 0.53181-1.2042 0.53181-0.54438 0-0.99291-0.19796-1.344-0.59387-0.35037-0.39435-0.52788-0.88296-0.52788-1.4666 0-0.62373 0.18304-1.128 0.5475-1.5153 0.36452-0.38335 0.81304-0.57738 1.3425-0.57738 0.4635 0 0.85782 0.14847 1.1862 0.44462v-2.4124h0.62451zm-4.6363 0h-0.6198v-2.2679c0-0.40064-0.0943-0.70071-0.2828-0.89867-0.1893-0.19639-0.43993-0.29694-0.75335-0.29694-0.36606 0-0.72585 0.18853-1.077 0.56716v2.8963h-0.62369v-3.9152h0.62369v0.37628c0.36292-0.32993 0.75883-0.49647 1.1862-0.49647 0.47757 0 0.85547 0.15318 1.1312 0.45797 0.27726 0.30401 0.41554 0.73135 0.41554 1.2836zm-6.3967-0.43989c0.41477 0 0.76037-0.14376 1.0314-0.43048 0.27337-0.28829 0.40928-0.65122 0.40928-1.0904 0-0.4454-0.14063-0.80832-0.41948-1.0919-0.28044-0.282-0.62138-0.42419-1.0212-0.42419-0.42343 0-0.76986 0.14847-1.0432 0.44069-0.27101 0.29694-0.4077 0.65357-0.4077 1.0754 0 0.4517 0.143 0.81776 0.42579 1.0998 0.28515 0.28043 0.62605 0.42105 1.0251 0.42105m0-3.5954c0.59623 0 1.0919 0.20266 1.4815 0.60487 0.3912 0.40299 0.58764 0.89238 0.58764 1.4698 0 0.59545-0.20191 1.0904-0.60726 1.4847-0.40298 0.39592-0.89081 0.59388-1.4619 0.59388-0.59623 0-1.0911-0.20189-1.487-0.60566-0.39439-0.40535-0.59234-0.89552-0.59234-1.4729 0-0.59701 0.20113-1.0919 0.60177-1.4847 0.40139-0.39356 0.89393-0.58994 1.4776-0.58994m-2.7934 3.846c-0.35975 0.20581-0.75567 0.30715-1.1862 0.30715-0.58681 0-1.077-0.20189-1.4745-0.60566-0.39746-0.40535-0.59541-0.88924-0.59541-1.4548 0-0.58367 0.20108-1.077 0.6017-1.4823 0.4014-0.40613 0.89394-0.61037 1.4769-0.61037 0.42183 0 0.81457 0.10369 1.1775 0.30793v0.59388c-0.32204-0.22781-0.68815-0.34329-1.099-0.34329-0.4305 0-0.79183 0.14219-1.088 0.43048-0.29376 0.2828-0.44069 0.64651-0.44069 1.0856 0 0.43363 0.14693 0.79499 0.43915 1.0856 0.293 0.28986 0.65592 0.43519 1.0895 0.43519 0.38101 0 0.74783-0.11705 1.099-0.35114zm-8.2176-0.25059c0.41713 0 0.76043-0.14376 1.033-0.43048 0.27178-0.28829 0.40847-0.65122 0.40847-1.0904 0-0.4454-0.13981-0.80832-0.41872-1.0919-0.28044-0.282-0.62133-0.42419-1.0228-0.42419-0.42184 0-0.76827 0.14847-1.0408 0.44069-0.27337 0.29694-0.40852 0.65357-0.40852 1.0754 0 0.4517 0.1414 0.81776 0.42655 1.0998 0.2828 0.28043 0.62534 0.42105 1.0228 0.42105m0-3.5954c0.59859 0 1.0919 0.20266 1.4832 0.60487 0.39197 0.40299 0.5868 0.89238 0.5868 1.4698 0 0.59545-0.20267 1.0904-0.60648 1.4847-0.40452 0.39592-0.89234 0.59388-1.4635 0.59388-0.59388 0-1.0888-0.20189-1.4847-0.60566-0.39668-0.40535-0.59305-0.89552-0.59305-1.4729 0-0.59701 0.19949-1.0919 0.60171-1.4847 0.40222-0.39356 0.89393-0.58994 1.476-0.58994m-2.6096 3.9827c-0.23726 0.11391-0.49802 0.17047-0.78164 0.17047-0.42891 0-0.73681-0.12098-0.92381-0.36685-0.18771-0.24352-0.28044-0.59466-0.28044-1.0471v-2.0699h-0.72897v-0.5491h0.72897v-1.0723h0.61904v1.0723h1.3668v0.5491h-1.3668v1.8806c0.0118 0.31342 0.0242 0.50745 0.0377 0.58366 0.0136 0.0762 0.04 0.15161 0.0841 0.22466 0.0418 0.0738 0.10917 0.13355 0.20108 0.17911 0.0927 0.0448 0.22465 0.0675 0.39751 0.0675 0.20503 0 0.42102-0.0605 0.64649-0.18068zm-5.1768 0c-0.23643 0.11391-0.49802 0.17047-0.78241 0.17047-0.42808 0-0.73527-0.12098-0.92298-0.36685-0.187-0.24352-0.28044-0.59466-0.28044-1.0471v-2.0699h-0.73056v-0.5491h0.73056v-1.0723h0.6198v1.0723h1.366v0.5491h-1.366v1.8806c0.0118 0.31342 0.0236 0.50745 0.0377 0.58366 0.0136 0.0762 0.04 0.15161 0.0825 0.22466 0.043 0.0738 0.11076 0.13355 0.20184 0.17911 0.0935 0.0448 0.22547 0.0675 0.39751 0.0675 0.20579 0 0.42184-0.0605 0.64649-0.18068zm-3.2859-0.13668c-0.36133 0.20581-0.75572 0.30715-1.1862 0.30715-0.58681 0-1.0786-0.20189-1.4745-0.60566-0.39751-0.40535-0.59547-0.88924-0.59547-1.4548 0-0.58367 0.19955-1.077 0.60095-1.4823 0.40222-0.40613 0.89399-0.61037 1.4761-0.61037 0.42337 0 0.81458 0.10369 1.1791 0.30793v0.59388c-0.32286-0.22781-0.68891-0.34329-1.0998-0.34329-0.43044 0-0.79336 0.14219-1.0872 0.43048-0.29382 0.2828-0.4407 0.64651-0.4407 1.0856 0 0.43363 0.14535 0.79499 0.4391 1.0856 0.29223 0.28986 0.65598 0.43519 1.0888 0.43519 0.38101 0 0.74706-0.11705 1.0998-0.35114zm-4.641-2.1493c-0.0266-0.34172-0.14223-0.62294-0.34961-0.83896-0.20657-0.21682-0.47994-0.32522-0.81853-0.32522-0.32833 0-0.59075 0.11233-0.78788 0.33621-0.19643 0.22467-0.31426 0.50118-0.35509 0.82797zm0.59228 0.46661h-2.9442c9e-3 0.40299 0.15001 0.74392 0.42025 1.0181 0.27178 0.27573 0.60878 0.41399 1.0126 0.41399 0.19949 0 0.39274-0.0236 0.57891-0.0707 0.18618-0.0464 0.46821-0.18853 0.84603-0.42577v0.63787c-0.48152 0.27729-0.97329 0.41634-1.4776 0.41634-0.57578 0-1.0573-0.19639-1.4414-0.59073-0.3826-0.39278-0.57426-0.88925-0.57426-1.4878 0-0.40063 0.0841-0.76355 0.25216-1.0841 0.16733-0.32286 0.3928-0.56716 0.67165-0.73841 0.28044-0.16654 0.58209-0.25216 0.90259-0.25216 0.49254 0 0.90808 0.17753 1.2467 0.52553 0.33936 0.35036 0.50668 0.89631 0.50668 1.6379m-4.2695-3.1422c-0.27025 0.14925-0.48152 0.35977-0.63311 0.63236-0.13197-0.25451-0.34254-0.46662-0.62846-0.63236 0.23956-0.11705 0.45012-0.32757 0.62846-0.62923 0.15707 0.2883 0.36917 0.49726 0.63311 0.62923m-0.32127 5.2286c0 0.65043-0.1021 1.0888-0.30636 1.3166-0.20343 0.22624-0.50668 0.34014-0.91125 0.34014h-0.10523c-0.043 0-0.0958-5e-3 -0.15477-0.0172v-0.55852c0.0359 0.0126 0.0722 0.0181 0.11153 0.0181h0.11394c0.20503 0 0.34484-0.0448 0.41942-0.13668 0.0739-0.0911 0.12885-0.18147 0.16185-0.26945 0.033-0.0903 0.0512-0.32129 0.0512-0.69285v-4.1296h0.6198zm-4.7204-1.194c0.36292 0.36607 0.73215 0.5491 1.1037 0.5491 0.39751 0 0.7219-0.14455 0.97094-0.42813 0.24904-0.28751 0.37318-0.64179 0.37318-1.066 0-0.44855-0.13198-0.81619-0.39593-1.1053-0.26241-0.2883-0.58762-0.43362-0.97488-0.43362-0.36605 0-0.72431 0.15318-1.077 0.45719zm0-2.6112c0.32834-0.29615 0.72425-0.44462 1.1862-0.44462 0.54598 0 0.9961 0.1956 1.3551 0.58523 0.35667 0.38964 0.53495 0.89238 0.53495 1.5075 0 0.59388-0.17828 1.0872-0.53337 1.476-0.35585 0.38963-0.80284 0.58445-1.3386 0.58445-0.45088 0-0.85157-0.17675-1.2042-0.53181v0.41398h-0.62375v-6.0032h0.62375zm-1.8445 3.5907h-0.6198v-0.37863c-0.36604 0.33149-0.76355 0.49646-1.1909 0.49646-0.4784 0-0.85469-0.15239-1.1328-0.45719-0.27572-0.30479-0.414-0.73213-0.414-1.2828v-2.293h0.61985v2.2663c0 0.40219 0.0943 0.70227 0.28357 0.9018 0.1893 0.19953 0.4391 0.29851 0.75253 0.29851 0.36923 0 0.72903-0.18931 1.0817-0.56717v-2.8994h0.6198zm-4.6497-3.1155c-0.36917-0.24587-0.77451-0.3692-1.2168-0.3692-0.26082 0-0.4682 0.0479-0.62215 0.1414-0.15318 0.0974-0.23095 0.22624-0.23095 0.38963 0 0.15868 0.0715 0.27573 0.21287 0.35114 0.14223 0.0762 0.44858 0.17988 0.91597 0.30872 0.36369 0.0958 0.62999 0.19795 0.79814 0.30479 0.16808 0.10762 0.29375 0.23645 0.37783 0.38806 0.08407 0.15318 0.1249 0.33151 0.1249 0.53732 0 0.34799-0.1351 0.63315-0.40853 0.85153-0.27254 0.22074-0.63706 0.32993-1.0927 0.32993-0.47604 0-0.96781-0.15083-1.4776-0.45248v-0.64493c0.55929 0.36607 1.0574 0.5491 1.4941 0.5491 0.30082 0 0.52005-0.0636 0.65674-0.18932 0.13663-0.12569 0.2042-0.2773 0.2042-0.45326 0-0.17518-0.08013-0.31029-0.24196-0.40456-0.1602-0.0935-0.43357-0.19089-0.81693-0.29379-0.36369-0.10841-0.60489-0.18932-0.72662-0.24195-0.12254-0.0526-0.23254-0.12097-0.33234-0.20817-0.09975-0.0856-0.17593-0.18774-0.23012-0.30165-0.05483-0.11391-0.08249-0.25216-0.08249-0.41241 0-0.32836 0.14299-0.59388 0.42814-0.79498 0.2828-0.20267 0.62999-0.30479 1.0408-0.30479 0.41242 0 0.8217 0.0974 1.2255 0.29144zm-6.5295 2.1359v-2.0267c-0.34636-0.30401-0.70457-0.45719-1.0769-0.45719-0.40458 0-0.73298 0.15161-0.98826 0.45169-0.25528 0.29929-0.38254 0.66142-0.38254 1.0872 0 0.43597 0.12885 0.79497 0.38726 1.0738 0.2577 0.28044 0.57579 0.42027 0.9568 0.42027 0.3661 0 0.73451-0.18303 1.1037-0.5491m0.62375 0.97958h-0.62375v-0.41398c-0.34636 0.35506-0.74699 0.53181-1.2042 0.53181-0.54438 0-0.99297-0.19796-1.3456-0.59388-0.35114-0.39434-0.52636-0.88295-0.52636-1.4666 0-0.62373 0.18305-1.128 0.54757-1.5153 0.36446-0.38336 0.81145-0.57738 1.3425-0.57738 0.4619 0 0.85782 0.14847 1.1862 0.44462v-2.4124h0.62375zm-5.084-2.3386c-0.02769-0.34171-0.14299-0.62293-0.34961-0.83896-0.20733-0.21681-0.47993-0.32522-0.81929-0.32522-0.3284 0-0.59075 0.11234-0.78712 0.33621-0.19484 0.22467-0.31502 0.50118-0.35585 0.82797zm0.59388 0.46662h-2.9442c0.0088 0.40298 0.14847 0.74391 0.41789 1.0181 0.27178 0.27573 0.60955 0.41399 1.0141 0.41399 0.19955 0 0.3912-0.0236 0.57738-0.0707 0.18617-0.0464 0.46821-0.18853 0.84604-0.42577v0.63786c-0.47993 0.2773-0.9717 0.41634-1.476 0.41634-0.57738 0-1.0574-0.19639-1.4415-0.59073-0.38337-0.39278-0.57579-0.88924-0.57579-1.4878 0-0.40063 0.08401-0.76355 0.25216-1.084 0.16968-0.32286 0.39279-0.56716 0.67318-0.73842 0.27891-0.16654 0.58056-0.25216 0.90342-0.25216 0.49171 0 0.90731 0.17753 1.2451 0.52553 0.33859 0.35036 0.50827 0.89631 0.50827 1.6379m-4.5538 1.872h-0.6198v-0.37863c-0.3661 0.33149-0.76202 0.49646-1.1909 0.49646-0.47681 0-0.8531-0.15239-1.1304-0.45719-0.27808-0.30479-0.41559-0.73213-0.41559-1.2828v-2.293h0.61903v2.2663c0 0.4022 0.09503 0.70228 0.28356 0.9018 0.18936 0.19953 0.44152 0.29851 0.75495 0.29851 0.3684 0 0.72897-0.18931 1.0793-0.56717v-2.8994h0.6198zm-4.6481-3.1155c-0.36917-0.24588-0.77534-0.36921-1.2184-0.36921-0.26076 0-0.46738 0.0479-0.62056 0.1414-0.15477 0.0974-0.23095 0.22624-0.23095 0.38963 0 0.15868 0.0707 0.27573 0.21286 0.35114 0.14216 0.0762 0.447 0.17989 0.91674 0.30872 0.36292 0.0958 0.62846 0.19796 0.79737 0.30479 0.16809 0.10762 0.29458 0.23646 0.3786 0.38806 0.08248 0.15319 0.12414 0.33151 0.12414 0.53732 0 0.34799-0.13668 0.63315-0.4077 0.85153-0.27337 0.22074-0.63788 0.32993-1.0951 0.32993-0.47369 0-0.96622-0.15082-1.476-0.45248v-0.64493c0.55929 0.36607 1.0574 0.5491 1.4941 0.5491 0.30165 0 0.52005-0.0636 0.65674-0.18932 0.13668-0.12568 0.2042-0.2773 0.2042-0.45326 0-0.17518-0.08089-0.31029-0.24197-0.40456-0.16178-0.0935-0.4328-0.19089-0.81693-0.29379-0.36292-0.10841-0.60642-0.18932-0.72744-0.24195-0.12178-0.0526-0.23248-0.12097-0.33152-0.20817-0.09892-0.0856-0.17751-0.18774-0.23089-0.30165-0.0542-0.11391-0.08095-0.25216-0.08095-0.41241 0-0.32836 0.14222-0.59387 0.42579-0.79498 0.28515-0.20267 0.63158-0.30479 1.0409-0.30479 0.41394 0 0.82164 0.0974 1.227 0.29144zm-3.8413 0c-0.36917-0.24588-0.77374-0.36921-1.2168-0.36921-0.26082 0-0.46738 0.0479-0.62215 0.1414-0.15318 0.0974-0.23095 0.22624-0.23095 0.38963 0 0.15868 0.07229 0.27573 0.21286 0.35114 0.14216 0.0762 0.44853 0.17989 0.91673 0.30872 0.36451 0.0958 0.63005 0.19796 0.79814 0.30479 0.16732 0.10762 0.29381 0.23646 0.37783 0.38806 0.08407 0.15319 0.12573 0.33151 0.12573 0.53732 0 0.34799-0.13668 0.63315-0.40929 0.85153-0.27337 0.22074-0.63788 0.32993-1.0935 0.32993-0.47528 0-0.96782-0.15082-1.4776-0.45248v-0.64493c0.55929 0.36607 1.0574 0.5491 1.4941 0.5491 0.30165 0 0.52005-0.0636 0.65674-0.18932 0.13668-0.12568 0.2042-0.2773 0.2042-0.45326 0-0.17518-0.0793-0.31029-0.24191-0.40456-0.16025-0.0935-0.43286-0.19089-0.81699-0.29379-0.36292-0.10841-0.60489-0.18932-0.72585-0.24195-0.12178-0.0526-0.23254-0.12097-0.33305-0.20817-0.09898-0.0856-0.17598-0.18774-0.22942-0.30165-0.05597-0.11391-0.08248-0.25216-0.08248-0.41241 0-0.32836 0.14222-0.59387 0.42738-0.79498 0.28356-0.20267 0.62999-0.30479 1.0408-0.30479 0.41241 0 0.8217 0.0974 1.2255 0.29144zm-3.8625 3.1155h-0.63706v-6.0024h0.63706z" fill="#1c3e94"/>
 <g fill="#fff">
  <path d="m410.22 283.9c1.5289 4.2003 5.1052 6.8085 9.3593 6.8085 4.2658 0 7.738-2.5192 9.3781-6.8085zm9.3593-12.904c-4.3033 0-7.7368 2.4818-9.3593 6.757h18.737c-1.7408-4.37-5.056-6.757-9.3781-6.757m18.789 6.757v6.1471h-3.821c-1.6553 7.285-7.6724 12.186-14.955 12.193-7.3119 4e-3 -13.157-4.7575-14.962-12.193h-3.8608v-6.1471h3.8608c1.962-7.5542 7.6443-12.189 14.95-12.189 7.2826 0 13.162 4.788 14.967 12.189z"/>
  <path d="m485.19 280.35v-3.8105h-9.6824l-11.906-5.4786h-8.7705l11.867 5.4786h-18.931v3.8105h18.671l-8.9356 4.1265h-9.7351v3.8105h10.159l11.865 5.4763h8.8138l-11.907-5.4763h18.492v-3.8105h-18.91l8.9672-4.1265z"/>
  <path d="m190.95 284.78h-1.8091v-4.282c0-0.61665-0.12885-1.077-0.39196-1.3841-0.26082-0.30793-0.65044-0.4619-1.1681-0.4619-0.57425 0-1.1296 0.21524-1.6693 0.64572v5.4823h-1.806v-7.6206h1.6991v0.66143c0.26158-0.26552 0.57896-0.4729 0.95444-0.61979 0.37317-0.14533 0.74234-0.21918 1.1068-0.21918 0.99292 0 1.7565 0.27181 2.2875 0.81619 0.53102 0.54281 0.79655 1.3095 0.79655 2.2993zm-12.482-1.6064c0.59546 0 1.099-0.21289 1.5114-0.63866 0.41324-0.42419 0.6198-0.94816 0.6198-1.5687 0-0.61508-0.20579-1.1375-0.61509-1.5648-0.41082-0.42891-0.91514-0.64336-1.5161-0.64336-0.59859 6e-3 -1.1029 0.22231-1.5106 0.64651-0.4077 0.42576-0.61196 0.94658-0.61196 1.5617 0 0.62058 0.20426 1.1446 0.61196 1.5687 0.4077 0.42577 0.91202 0.63866 1.5106 0.63866m0 1.7761c-1.0966 0-2.0354-0.38884-2.8138-1.1681-0.78006-0.78005-1.1689-1.7196-1.1689-2.8154 0-1.0919 0.38884-2.0298 1.1689-2.8107 0.77845-0.78162 1.7172-1.1736 2.8138-1.1736 1.0935 0 2.0291 0.39199 2.8107 1.1689 0.78317 0.78162 1.1744 1.7188 1.1744 2.8154 0 1.0958-0.3912 2.0354-1.1744 2.8154-0.78164 0.77926-1.7172 1.1681-2.8107 1.1681m-7.4439-2.0911v-3.7856c-0.40534-0.28044-0.90495-0.42105-1.4988-0.42105-0.65668 0-1.1712 0.19639-1.546 0.58759-0.37389 0.3912-0.56165 0.93322-0.56165 1.6182 0 0.74392 0.19401 1.3339 0.5805 1.7683 0.38731 0.43676 0.92144 0.65436 1.6033 0.65436 0.54356 0 1.0172-0.1414 1.4226-0.42184m1.8068 1.9214h-1.6991v-0.60015c-0.50668 0.51296-1.1281 0.76983-1.861 0.76983-1.0966 0-1.9905-0.37235-2.6795-1.1163-0.68967-0.74234-1.0346-1.7038-1.0346-2.8822 0-1.1642 0.33783-2.1163 1.011-2.8578 0.67482-0.74076 1.5751-1.1116 2.7031-1.1116 0.64573 0 1.231 0.21053 1.7534 0.63158v-3.3386h1.8068zm-8.8429 0h-1.8076v-4.282c0-0.61665-0.13044-1.077-0.39121-1.3841-0.26158-0.30793-0.65125-0.4619-1.1689-0.4619-0.57425 0-1.1304 0.21524-1.6693 0.64572v5.4823h-1.8075v-7.6206h1.7015v0.66143c0.26081-0.26552 0.57896-0.4729 0.95367-0.61979 0.37312-0.14533 0.74234-0.21918 1.1068-0.21918 0.99292 0 1.7565 0.27181 2.2875 0.81619 0.53107 0.54281 0.79502 1.3095 0.79502 2.2993zm-12.481-1.6064c0.59541 0 1.099-0.21289 1.5121-0.63866 0.41241-0.42419 0.61903-0.94816 0.61903-1.5687 0-0.61508-0.20503-1.1375-0.61667-1.5648-0.40924-0.42891-0.91279-0.64336-1.5145-0.64336-0.59859 6e-3 -1.1021 0.22231-1.5106 0.64651-0.4077 0.42576-0.61196 0.94658-0.61196 1.5617 0 0.62058 0.20426 1.1446 0.61196 1.5687 0.40847 0.42577 0.91202 0.63866 1.5106 0.63866m0 1.7761c-1.0967 0-2.0354-0.38884-2.8138-1.1681-0.78005-0.78005-1.1681-1.7196-1.1681-2.8154 0-1.0919 0.38808-2.0298 1.1681-2.8107 0.77845-0.78162 1.7172-1.1736 2.8138-1.1736 1.0935 0 2.0291 0.39199 2.8106 1.1689 0.78323 0.78162 1.1728 1.7188 1.1728 2.8154 0 1.0958-0.38961 2.0354-1.1728 2.8154-0.78158 0.77926-1.7172 1.1681-2.8106 1.1681m-4.8751-0.16968h-6.4282v-10.505h2.044v8.5837h4.3841zm-11.627-6.0966c-0.17357-0.0526-0.36446-0.0785-0.56872-0.0785-0.69834 0-1.3496 0.25216-1.9544 0.7549v5.4203h-1.8068v-7.6206h1.7007v0.83111c0.49171-0.67243 1.1477-1.0086 1.9678-1.0086 0.18459 0 0.40535 0.0259 0.6614 0.0786zm-9.967 4.4902c0.59546 0 1.0998-0.21289 1.5122-0.63866 0.41242-0.42419 0.61898-0.94816 0.61898-1.5687 0-0.61508-0.20503-1.1375-0.61585-1.5648-0.40929-0.42891-0.91361-0.64336-1.5153-0.64336-0.59859 6e-3 -1.1022 0.22231-1.5098 0.64651-0.40846 0.42576-0.6119 0.94658-0.6119 1.5617 0 0.62058 0.20344 1.1446 0.6119 1.5687 0.4077 0.42577 0.91126 0.63866 1.5098 0.63866m0 1.7761c-1.0958 0-2.0354-0.38884-2.8138-1.1681-0.78005-0.78005-1.1681-1.7196-1.1681-2.8154 0-1.0919 0.38808-2.0298 1.1681-2.8107 0.77846-0.78162 1.718-1.1736 2.8138-1.1736 1.0935 0 2.0298 0.39199 2.8107 1.1689 0.78316 0.78162 1.1736 1.7188 1.1736 2.8154 0 1.0958-0.39044 2.0354-1.1736 2.8154-0.78088 0.77926-1.7172 1.1681-2.8107 1.1681m-4.3676-9.2121c-0.45094-0.21602-0.91909-0.32599-1.4069-0.33149-0.45565 0-0.79342 0.14218-1.011 0.42262-0.21681 0.28358-0.32681 0.72585-0.32681 1.3307h2.553v1.4305h-2.553v6.1901h-1.8075v-6.1901h-1.1532v-1.4305h1.1532c0-1.1013 0.22076-1.9128 0.66145-2.4328 0.44145-0.52239 1.1225-0.78162 2.0463-0.78162 0.61903 0 1.2341 0.0762 1.8445 0.23095zm-10.304 8.8822c-0.55928 0.21917-1.1846 0.32993-1.8766 0.32993-0.87591 0-1.557-0.2278-2.0409-0.68578-0.4847-0.45404-0.72661-1.1139-0.72661-1.9749v-3.6536h-1.2608v-1.476h1.2608v-1.8602h1.806v1.8602h2.762v1.476h-2.762v3.575c0 0.26866 0.0348 0.48311 0.10529 0.64808 0.0691 0.16339 0.19949 0.29693 0.39591 0.39749 0.19324 0.10525 0.46343 0.15632 0.80674 0.15632 0.35897 0 0.86884-0.15004 1.5302-0.44698zm-6.6732-5.9364c-0.17363-0.0526-0.36452-0.0785-0.56878-0.0785-0.69674 0-1.3495 0.25216-1.9537 0.7549v5.4203h-1.806v-7.6206h1.6991v0.83111c0.49177-0.67243 1.1477-1.0086 1.9678-1.0086 0.18458 0 0.40534 0.0259 0.66145 0.0786zm-9.5303 4.4902c0.59541 0 1.0997-0.21289 1.5121-0.63866 0.41241-0.42419 0.61903-0.94816 0.61903-1.5687 0-0.61508-0.20502-1.1375-0.61667-1.5648-0.40923-0.42891-0.91279-0.64336-1.5145-0.64336-0.59858 6e-3 -1.1021 0.22231-1.5106 0.64651-0.4077 0.42576-0.61196 0.94658-0.61196 1.5617 0 0.62058 0.20426 1.1446 0.61196 1.5687 0.40847 0.42577 0.91203 0.63866 1.5106 0.63866m0 1.7761c-1.0967 0-2.0354-0.38884-2.8138-1.1681-0.78005-0.78005-1.1681-1.7196-1.1681-2.8154 0-1.0919 0.38808-2.0298 1.1681-2.8107 0.77846-0.78162 1.7172-1.1736 2.8138-1.1736 1.0935 0 2.0291 0.39199 2.8106 1.1689 0.78323 0.78162 1.1728 1.7188 1.1728 2.8154 0 1.0958-0.38962 2.0354-1.1728 2.8154-0.78158 0.77926-1.7172 1.1681-2.8106 1.1681m-10.588-2.0141c0.39903 0.28201 0.89947 0.42263 1.4996 0.42263 0.66145 0 1.1776-0.2011 1.5499-0.60173 0.36999-0.39827 0.55616-0.95994 0.55616-1.6826 0-0.75885-0.19248-1.348-0.57579-1.7683-0.38572-0.42183-0.92304-0.63314-1.6159-0.63865-0.47056 0-0.94342 0.14533-1.414 0.43913zm-0.10841-5.1838c0.5554-0.51139 1.194-0.76984 1.923-0.76984 1.0754 0 1.9544 0.3755 2.634 1.1241 0.67948 0.74785 1.0181 1.7046 1.0181 2.8751 0 1.1681-0.337 2.1233-1.015 2.8649-0.67636 0.74077-1.5782 1.1084-2.7062 1.1037-0.67636 0-1.26-0.18302-1.7455-0.54595v3.3056h-1.8076v-10.55h1.6991zm-3.7227 1.4234c-0.77846-0.44069-1.5805-0.663-2.4053-0.663-0.37553 0-0.65909 0.0613-0.84921 0.18461-0.19325 0.12254-0.28987 0.2875-0.28987 0.49175 0 0.20581 0.10057 0.37391 0.30012 0.50432 0.19948 0.1304 0.61037 0.28908 1.2317 0.47369 1.0605 0.31343 1.7518 0.66143 2.0715 1.0456 0.32051 0.38413 0.48159 0.8641 0.48159 1.4383 0 0.71249-0.28363 1.2749-0.84763 1.6842-0.564 0.41084-1.3425 0.61508-2.337 0.61508-1.0196 0-1.9709-0.22466-2.8531-0.67635v-1.8374c0.43043 0.30715 0.90024 0.54596 1.4116 0.71799 0.5098 0.17125 1.0008 0.25845 1.4713 0.25845 0.84132 0 1.2616-0.22624 1.2616-0.67636 0-0.23252-0.10522-0.4187-0.31496-0.55852-0.20974-0.14061-0.64654-0.31343-1.3064-0.52004-0.71878-0.20973-1.2341-0.40926-1.5507-0.59544-0.31497-0.18775-0.55535-0.42027-0.7235-0.69913-0.16496-0.28045-0.24897-0.63001-0.24897-1.0511 0-0.6905 0.27337-1.2514 0.81929-1.6834 0.54597-0.43048 1.249-0.64651 2.1116-0.64651 0.86571 0 1.7219 0.16261 2.5664 0.48469zm-7.1194 5.6049h-1.8075v-4.282c0-0.61665-0.13039-1.077-0.39197-1.3841-0.26241-0.30793-0.65203-0.4619-1.1697-0.4619-0.57425 0-1.1297 0.21524-1.6693 0.64572v5.4823h-1.806v-7.6206h1.6991v0.66143c0.26159-0.26552 0.57891-0.4729 0.95445-0.61979 0.37312-0.14533 0.74234-0.21918 1.1069-0.21918 0.99444 0 1.758 0.27181 2.2875 0.81619 0.53107 0.54281 0.79655 1.3095 0.79655 2.2993zm-10.735-1.9065v-1.9372c-0.90731 0.12726-1.5884 0.32051-2.0424 0.57895-0.45324 0.25924-0.67948 0.58602-0.67948 0.98194 0 0.28044 0.09267 0.50588 0.28044 0.67636 0.18694 0.1681 0.44382 0.25372 0.77221 0.25372 0.25682 0 0.51139-0.0479 0.76508-0.14218 0.25452-0.0966 0.55464-0.23095 0.90418-0.41163m1.806 1.9065h-1.6991v-0.6465c-0.71719 0.54438-1.4791 0.81618-2.2828 0.81618-0.72349 0-1.3048-0.20817-1.7463-0.62686-0.44069-0.4187-0.66145-0.96465-0.66145-1.641 0-0.85232 0.39751-1.5436 1.1909-2.0731 0.79501-0.53102 1.9262-0.8366 3.3928-0.92065-0.02533-0.4187-0.16025-0.72035-0.40299-0.90181-0.24509-0.18303-0.63005-0.27416-1.1579-0.27416-0.84604 0-1.674 0.24117-2.484 0.72428l0.39279-1.8146c0.80833-0.29379 1.6268-0.43991 2.4525-0.43991 0.71642 0 1.3079 0.12491 1.7714 0.37393 0.46508 0.24902 0.78559 0.56952 0.96546 0.95993 0.17993 0.39278 0.26866 0.91517 0.26866 1.5656zm-7.1124-6.0966c-0.17439-0.0526-0.36446-0.0785-0.56872-0.0785-0.69757 0-1.348 0.25216-1.9544 0.7549v5.4203h-1.806v-7.6206h1.7v0.83111c0.49171-0.67243 1.1469-1.0086 1.9693-1.0086 0.18464 0 0.40298 0.0259 0.65986 0.0786zm-5.0746-2.5844h-3.0369v8.6811h-2.044v-8.6811h-3.0464v-1.824h8.1273z"/>
 </g>
</svg>
